<svg data-v-0dd9719b="" version="1.0" xmlns="http://www.w3.org/2000/svg" xmlns:xlink="http://www.w3.org/1999/xlink" width="100%" height="100%" viewBox="0 0 340.000000 250.000000" preserveAspectRatio="xMidYMid meet" color-interpolation-filters="sRGB" style="margin: auto;"> <rect data-v-0dd9719b="" x="0" y="0" width="100%" height="100%" fill="#fff" fill-opacity="1" class="background"></rect> <rect data-v-0dd9719b="" x="0" y="0" width="100%" height="100%" fill="url(#watermark)" fill-opacity="1" class="watermarklayer"></rect> <g data-v-0dd9719b="" fill="#333" class="icon-text-wrapper icon-svg-group iconsvg" transform="translate(48.5,95.03805160522461)"><g class="iconsvg-imagesvg" transform="translate(0,0)"><g><rect fill="#333" fill-opacity="0" stroke-width="2" x="0" y="0" width="60" height="59.9238966512529" class="image-rect"></rect> <svg x="0" y="0" width="60" height="59.9238966512529" filtersec="colorsb7684429179" class="image-svg-svg primary" style="overflow: visible;"><svg xmlns="http://www.w3.org/2000/svg" viewBox="-0.013412523083388805 0 100.12681579589844 100"><g fill-rule="evenodd"><path d="M50.05 64.56a33.61 33.61 0 0 1-33.61-33.62 2.25 2.25 0 0 1 4.5 0 29.11 29.11 0 0 0 29.11 29.12 9 9 0 1 1 0 18 2.25 2.25 0 1 1 0-4.49 4.5 4.5 0 0 0 3.19-1.33 4.51 4.51 0 0 0-3.19-7.69zm0-12.31a21.31 21.31 0 0 1-2.25-42.5V0a50.05 50.05 0 0 0 0 100v-9.74a21.27 21.27 0 0 1-13.54-6.9 2.24 2.24 0 1 1 3.32-3 17 17 0 0 0 5.66 4.1 16.82 16.82 0 1 0 6.81-32.2z" fill="#0d72ff"></path><path d="M50.05 35.45a33.63 33.63 0 0 1 33.62 33.62 2.25 2.25 0 0 1-4.5 0A29.12 29.12 0 0 0 50.05 40a9 9 0 0 1 0-18 2.25 2.25 0 0 1 0 4.5 4.51 4.51 0 1 0 0 9zm0 12.3a21.32 21.32 0 0 1 2.25 42.51V100a50.05 50.05 0 0 0 0-100v9.75a21.36 21.36 0 0 1 13.55 6.89 2.24 2.24 0 0 1-3.33 3 16.82 16.82 0 1 0-12.47 28.1z" fill="#0daeff"></path></g></svg></svg> <!----></g></g> <g transform="translate(67,3.1606979370117188)"><g data-gra="path-name" fill-rule="" class="tp-name iconsvg-namesvg" transform="translate(0,0)"><g transform="scale(1)"><g><path d="M13.28-28.89L7.11-25.56Q5.4-28.71 1.93-32.27L1.93-32.27 7.69-35.05Q10.8-33.03 13.28-28.89L13.28-28.89ZM8.78 3.38L8.78 3.38 2.29-0.18Q6.17-5.94 7.47-13.32L7.47-13.32 13.09-11.25Q11.7-1.3 8.78 3.38ZM13.72-17.82L7.83-14.4Q5.85-17.55 2.16-21.06L2.16-21.06 7.6-24.34Q10.93-21.87 13.72-17.82L13.72-17.82ZM25.02-15.39L25.02-20.25 31-20.34Q31-16.61 31.05-15.66L31.05-15.66Q37.26-15.93 42.98-16.06L42.98-16.06 43.38-10.39Q42.21-10.3 37.39-10.17L37.39-10.17Q40.32-7.92 43.24-3.19L43.24-3.19 38.34 1.08Q35.14-4.05 31.09-8.59L31.09-8.59Q31.09-7.11 31.09-2.7L31.09-2.7 31.09 3.38 24.57 3.28Q24.97-2.79 24.97-7.42L24.97-7.42Q22.45-1.67 18.09 1.53L18.09 1.53 13.23-3.51Q17.77-5.98 19.48-9.58L19.48-9.58Q16.47-9.4 13.99-9.36L13.99-9.36 13.81-15.07Q18.31-15.16 25.02-15.39L25.02-15.39ZM20.43-24.57L20.43-24.57Q21.82-25.61 22.77-26.91L22.77-26.91 27.36-23.89Q23.54-18.77 18.27-16.47L18.27-16.47 14.08-21.33Q16.92-22.27 18.99-23.58L18.99-23.58 13.86-23.49Q13.86-28.08 13.54-34.29L13.54-34.29 19.98-34.78 19.98-33.75Q34.29-34.34 37.19-34.34 40.09-34.34 41.45-33.75 42.8-33.16 43.11-31.05 43.42-28.93 42.48-22.9L42.48-22.9 38.02-23.18Q39.69-21.87 41.4-20.29L41.4-20.29 36.81-16.56Q32.76-20.47 28.35-23.71L28.35-23.71 31.95-27.22Q34.02-26.14 36.18-24.61L36.18-24.61Q36.72-26.91 36.54-27.49L36.54-27.49Q36.31-28.21 35.19-28.33 34.06-28.44 31.16-28.44 28.26-28.44 20.2-28.13L20.2-28.13Q20.29-26.37 20.43-24.57ZM66.38 3.24L66.38 3.24 59.94 0.54Q62.14-5.76 62.69-13.59L62.69-13.59Q63.05-18.77 63.05-27.31L63.05-27.31Q63.05-30.78 63-34.7L63-34.7 69.03-34.7Q69.21-30.6 69.21-26.41L69.21-26.41Q69.21-18.99 68.89-11.52 68.58-4.05 66.38 3.24ZM72-32.85L78.07-33.07Q78.3-15.79 78.3-8.01L78.3-8.01 78.25-1.03 71.78-1.48Q72.13-8.5 72.13-15.71L72.13-15.71Q72.13-19.8 72-32.85L72-32.85ZM81.18-34.6L87.21-34.88Q87.48-14.45 87.48-5.08L87.48-5.08 87.39 3.24 80.95 2.7Q81.36-5.8 81.36-14.35L81.36-14.35Q81.36-19.3 81.18-34.6L81.18-34.6ZM60.75-26.46L60.98-19.53 57.64-19.44Q57.69-14.67 57.69-11.07L57.69-11.07Q59.31-11.61 61.34-12.38L61.34-12.38 60.98-5.35Q55.89-3.6 47.7-2.88L47.7-2.88 47.16-9.36Q49.27-9.54 50.98-9.72L50.98-9.72Q51.26-15.12 51.3-19.04L51.3-19.04 47.25-18.77 47.25-25.61Q48.06-25.61 51.3-25.79L51.3-25.79Q51.26-28.17 51.08-34.34L51.08-34.34 57.38-34.7 57.55-26.32 60.75-26.46ZM133.06-2.65L131.67 3.6Q113.94 1.48 98.1 0.36L98.1 0.36Q97.83 1.62 97.42 3.33L97.42 3.33 91.62 1.48Q92.92-3.55 92.92-10.75L92.92-10.75Q92.92-12.82 92.79-14.94L92.79-14.94 98.14-15.03Q98.37-11.03 98.37-5.54L98.37-5.54 99.94-5.44 99.94-17.28 91.39-16.79 91.39-22.5Q94-22.54 97.78-22.77L97.78-22.77 97.83-25.7Q94.91-25.43 92.66-25.29L92.66-25.29 92.66-31 97.83-31.36 97.83-34.38 103.09-34.74Q103.19-32.85 103.19-31.5L103.19-31.5Q105.84-31.72 108.09-31.77L108.09-31.77 108.45-26.1Q106.38-26.05 103.23-25.83L103.23-25.83 103.23-23.04 109.22-23.45 109.44-17.73Q108.72-17.64 105.25-17.5L105.25-17.5 105.25-13.95Q106.65-14.13 109.08-14.17L109.08-14.17 109.35-8.5Q107.37-8.37 105.34-8.32L105.34-8.32 105.34-5.08Q116.23-4.5 133.06-2.65L133.06-2.65ZM128.16-3.92L128.16-3.92Q126.81-3.92 125.28-4.91L125.28-4.91Q124.2-5.63 123.39-7.25L123.39-7.25Q121.86-5.8 120.24-4.63L120.24-4.63 117.54-7.79Q114.97-7.25 113.63-7.25L113.63-7.25Q111.51-7.25 110.88-8.69L110.88-8.69Q110.43-9.81 110.43-11.61L110.43-11.61 110.43-12.15Q110.47-13.59 110.47-22L110.47-22 110.47-32.13 116.37-32.09 116.28-29.79Q118.17-29.79 119.92-29.74L119.92-29.74Q119.83-32.04 119.83-34.7L119.83-34.7 124.92-35.05 125.19-29.74 127.53-29.79Q127.17-31.09 125.5-33.57L125.5-33.57 129.6-34.88Q131.4-33.16 132.48-30.6L132.48-30.6 129.87-29.88 132.66-29.92 132.7-24.25Q129.15-24.03 125.5-23.98L125.5-23.98Q125.69-21.78 126.05-19.53L126.05-19.53Q127.08-21.24 128.2-23.36L128.2-23.36 132.25-20.93Q130.23-16.16 127.66-12.42L127.66-12.42Q128.07-11.61 128.61-11.61L128.61-11.61Q129.1-11.61 130-14.26L130-14.26 132.93-8.5Q132.3-6.3 130.84-5.11 129.38-3.92 128.16-3.92ZM120.02-14.49L119.75-12.15Q120.6-12.82 121.45-13.63L121.45-13.63Q120.6-18.22 120.15-23.94L120.15-23.94 116.14-24.03 116.14-21.24Q116.14-15.79 116.28-13.81L116.28-13.81Q116.33-13.28 116.78-13.28L116.78-13.28Q117.22-13.28 120.02-14.49L120.02-14.49ZM151.83-23.04L151.83-23.04Q151.78-28.44 151.56-32.8L151.56-32.8 157.05-32.89Q157.28-31 157.28-29.02L157.28-29.02 161.1-29.02 161.01-34.56 166.81-34.7 166.95-29.29Q168.88-29.47 170.55-29.65L170.55-29.65Q170.59-30.42 170.59-31.14L170.59-31.14Q170.59-32.09 170.5-33.03L170.5-33.03 176.44-33.25Q176.63-28.84 176.63-23.89L176.63-23.89Q172.03-23.63 167.4-23.36L167.4-23.36Q161.15-23.09 151.83-23.04ZM156.65-2.61L156.6 3.28 150.97 3.01Q151.29-3.1 151.29-5.71L151.29-5.71 151.2-13.59 156.42-13.77 156.42-12.78 160.16-13Q160.34-14.04 160.51-15.93L160.51-15.93 151.2-15.71 151.06-21.29Q156.42-21.29 164.2-21.58 171.99-21.87 177.21-21.91L177.21-21.91 177.57-16.29 166.54-16.06Q166.41-14.17 166.28-13.23L166.28-13.23Q168.03-13.28 171.18-13.28L171.18-13.28Q173.25-13.28 174.78-12.87 176.31-12.46 177.12-10.91 177.93-9.36 177.93-2.88L177.93-2.88Q177.93 0 177.44 1.17L177.44 1.17Q176.58 3.19 172.53 3.19L172.53 3.19Q171.68 3.19 171.27 3.1L171.27 3.1 170.28-2.56Q171.85-2.56 172.19-2.97 172.53-3.38 172.53-4.32L172.53-4.32Q172.53-5.4 172.49-6.41 172.44-7.42 171.85-7.63 171.27-7.83 170.01-7.83L170.01-7.83Q170.19-4.81 170.19-1.98L170.19-1.98 170.19 1.08 164.97 0.94Q165.38-1.8 165.38-4.54L165.38-4.54 165.33-7.74 163.22-7.69Q163.35-4.32 163.35-1.62L163.35-1.62 163.35 1.08 158.18 0.94Q158.58-1.8 158.58-4.54L158.58-4.54 158.49-7.33 156.56-7.11Q156.65-4.77 156.65-2.61L156.65-2.61ZM149.72-8.1L149.49-1.44Q144.9 0.18 137.47 0.9L137.47 0.9 137.03-5.22Q138.87-5.31 140.49-5.63L140.49-5.63Q140.72-9.27 140.76-13.05L140.76-13.05 137.16-12.78 137.12-19.3Q137.79-19.3 140.76-19.48L140.76-19.48Q140.72-24.57 140.63-25.61L140.63-25.61 136.84-25.38 136.8-31.86Q137.47-31.86 139-31.97 140.53-32.09 143.3-32.27 146.07-32.45 149.09-32.63L149.09-32.63 149.4-26.14 146.66-26.01 146.75-19.84 149.31-20.07 149.67-13.59 146.84-13.46 146.88-6.97Q148.05-7.47 149.72-8.1L149.72-8.1Z" transform="translate(-1.9300000667572021, 35.04999923706055)"></path></g> <!----> <!----> <!----> <!----> <!----> <!----> <!----></g></g> <g data-gra="path-slogan" fill-rule="" class="tp-slogan iconsvg-slogansvg" fill="#333" transform="translate(31.749176025390625,44.64999771118164)"><!----> <!----> <g transform="scale(1, 1)"><g transform="scale(1)"><path d="M7.17-6.09L7.17-6.09L6.09-6.09Q6-7.73 3.94-7.83L3.94-7.83Q2.02-7.78 2.02-6.33L2.02-6.33Q2.02-5.39 3.05-5.25L3.05-5.25L5.48-4.69Q7.41-4.22 7.41-2.34L7.41-2.34Q7.36 0.05 4.03 0.14L4.03 0.14Q2.20 0.14 1.45-0.61L1.45-0.61Q0.52-1.31 0.56-2.77L0.56-2.77L1.69-2.77Q1.73-0.80 4.03-0.75L4.03-0.75Q6.28-0.80 6.33-2.20L6.33-2.20Q6.52-3.38 4.45-3.75L4.45-3.75L2.67-4.13Q0.84-4.64 0.84-6.19L0.84-6.19Q0.98-8.72 3.84-8.81L3.84-8.81Q7.08-8.81 7.17-6.09ZM10.03-5.06L14.53-5.06L14.53-8.58L15.70-8.58L15.70 0L14.53 0L14.53-3.98L10.03-3.98L10.03 0L8.86 0L8.86-8.58L10.03-8.58L10.03-5.06ZM18.80-1.03L23.95-1.03L23.95 0L17.63 0L17.63-8.58L23.86-8.58L23.86-7.59L18.80-7.59L18.80-4.92L23.48-4.92L23.48-3.89L18.80-3.89L18.80-1.03ZM26.86-8.58L31.17-1.64L31.17-8.58L32.30-8.58L32.30 0L30.98 0L26.63-6.94L26.58-6.94L26.58 0L25.45 0L25.45-8.58L26.86-8.58ZM34.92-1.03L40.22-1.03L40.22 0L33.47 0L33.47-0.94L38.72-7.59L33.84-7.59L33.84-8.58L40.22-8.58L40.22-7.59L34.92-1.03ZM42.52-5.06L47.02-5.06L47.02-8.58L48.19-8.58L48.19 0L47.02 0L47.02-3.98L42.52-3.98L42.52 0L41.34 0L41.34-8.58L42.52-8.58L42.52-5.06ZM51.28-1.03L56.44-1.03L56.44 0L50.11 0L50.11-8.58L56.34-8.58L56.34-7.59L51.28-7.59L51.28-4.92L55.97-4.92L55.97-3.89L51.28-3.89L51.28-1.03ZM59.34-8.58L63.66-1.64L63.66-8.58L64.78-8.58L64.78 0L63.47 0L59.11-6.94L59.06-6.94L59.06 0L57.94 0L57.94-8.58L59.34-8.58ZM76.83-8.58L73.59-3.47L73.59 0L72.42 0L72.42-3.47L69.19-8.58L70.55-8.58L72.98-4.45L75.47-8.58L76.83-8.58ZM83.53-3.19L83.53-8.58L84.70-8.58L84.70-3.05Q84.56 0.05 81.19 0.14L81.19 0.14Q78.05 0.05 77.91-2.86L77.91-2.86L77.91-8.58L79.08-8.58L79.08-3.19Q79.13-0.84 81.23-0.80L81.23-0.80Q83.53-0.84 83.53-3.19L83.53-3.19ZM87.80-1.03L92.95-1.03L92.95 0L86.63 0L86.63-8.58L92.86-8.58L92.86-7.59L87.80-7.59L87.80-4.92L92.48-4.92L92.48-3.89L87.80-3.89L87.80-1.03ZM98.58-3.70L95.77-3.70L95.77 0L94.59 0L94.59-8.58L98.58-8.58Q101.44-8.58 101.44-6.28L101.44-6.28Q101.44-4.88 100.22-4.22L100.22-4.22Q101.25-3.94 101.25-2.58L101.25-2.58L101.34-1.03Q101.30-0.38 101.77-0.19L101.77-0.19L101.77 0L100.31 0Q100.17-0.61 100.13-2.16L100.13-2.16Q100.17-3.70 98.58-3.70L98.58-3.70ZM98.67-7.64L95.77-7.64L95.77-4.69L98.48-4.69Q100.22-4.69 100.22-6.19L100.22-6.19Q100.22-7.64 98.67-7.64L98.67-7.64ZM108.75-3.19L108.75-8.58L109.92-8.58L109.92-3.05Q109.78 0.05 106.41 0.14L106.41 0.14Q103.27 0.05 103.13-2.86L103.13-2.86L103.13-8.58L104.30-8.58L104.30-3.19Q104.34-0.84 106.45-0.80L106.45-0.80Q108.75-0.84 108.75-3.19L108.75-3.19ZM111.89-8.58L113.06-8.58L113.06 0L111.89 0L111.89-8.58Z" transform="translate(-0.5602678571428572, 8.8125)"></path></g></g></g></g></g><defs v-gra="od"></defs></svg>